HIERARCHY
ROOT hip
{
	OFFSET 0.000000 0.000000 0.000000 
	CHANNELS 6 Xposition Yposition Zposition Xrotation Zrotation Yrotation
	JOINT abdomen
	{
		OFFSET 0.000000 3.402643 0.000000 
		CHANNELS 3 Xrotation Zrotation Yrotation
		JOINT chest
		{
			OFFSET 0.000000 8.438565 -0.680529 
			CHANNELS 3 Xrotation Zrotation Yrotation
			JOINT neck
			{
				OFFSET 0.000000 10.207942 -0.272212 
				CHANNELS 3 Xrotation Zrotation Yrotation
				JOINT head
				{
					OFFSET 0.000000 3.130431 0.000000 
					CHANNELS 3 Xrotation Zrotation Yrotation
					End Site
					{
						OFFSET 0.000000 3.130435 0.000000 
					}
				}
			}
			JOINT lCollar
			{
				OFFSET 3.470700 6.669187 -0.816635 
				CHANNELS 3 Yrotation Zrotation Xrotation
				JOINT lShldr
				{
					OFFSET 3.198488 0.000000 0.000000 
					CHANNELS 3 Zrotation Yrotation Xrotation
					JOINT lForeArm
					{
						OFFSET 10.139888 0.000000 0.000000 
						CHANNELS 3 Yrotation Zrotation Xrotation
						JOINT lHand
						{
							OFFSET 8.370511 0.000000 0.000000 
							CHANNELS 3 Zrotation Yrotation Xrotation
							End Site
							{
								OFFSET 4.083176 0.000000 0.000000 
							}
						}
					}
				}
			}
			JOINT rCollar
			{
				OFFSET -3.470700 6.669187 -0.816635 
				CHANNELS 3 Yrotation Zrotation Xrotation
				JOINT rShldr
				{
					OFFSET -3.198488 0.000000 0.000000 
					CHANNELS 3 Zrotation Yrotation Xrotation
					JOINT rForeArm
					{
						OFFSET -10.139888 0.000000 0.000000 
						CHANNELS 3 Yrotation Zrotation Xrotation
						JOINT rHand
						{
							OFFSET -8.370511 0.000000 0.000000 
							CHANNELS 3 Zrotation Yrotation Xrotation
							End Site
							{
								OFFSET -4.083176 0.000000 0.000000 
							}
						}
					}
				}
			}
		}
	}
	JOINT lThigh
	{
		OFFSET 5.308129 -1.633274 1.361059 
		CHANNELS 3 Xrotation Zrotation Yrotation
		JOINT lShin
		{
			OFFSET -2.041588 -20.007561 0.000000 
			CHANNELS 3 Xrotation Zrotation Yrotation
			JOINT lFoot
			{
				OFFSET 0.000000 -19.190928 -1.224953 
				CHANNELS 3 Xrotation Yrotation Zrotation
				End Site
				{
					OFFSET 0.000000 -2.449906 4.627600 
				}
			}
		}
	}
	JOINT rThigh
	{
		OFFSET -5.308129 -1.633274 1.361059 
		CHANNELS 3 Xrotation Zrotation Yrotation
		JOINT rShin
		{
			OFFSET 2.041588 -20.007561 0.000000 
			CHANNELS 3 Xrotation Zrotation Yrotation
			JOINT rFoot
			{
				OFFSET 0.000000 -19.190928 -1.224953 
				CHANNELS 3 Xrotation Yrotation Zrotation
				End Site
				{
					OFFSET 0.000000 -2.449906 4.627600 
				}
			}
		}
	}
}
MOTION
Frames: 16
Frame Time: 0.033333
4.504274 41.066704 11.411300 -8.219947 -2.622382 -44.463478 0.000000 0.000000 0.000000 -1.259668 3.198769 10.387997 -12.011538 6.166048 4.087209 12.567938 -4.837496 7.830768 -3.521967 9.154817 6.304141 -84.848907 -5.505936 -29.873085 -86.920616 -12.763503 5.964663 43.831665 17.306795 -6.802872 3.089181 -14.089146 8.026228 91.953743 35.898918 31.095478 91.061592 6.396658 34.945686 -39.771046 -14.228282 -8.077155 -31.982374 11.982500 7.538284 71.567215 2.997687 -8.225814 -6.965588 0.871979 -5.989768 -4.248443 -23.242918 -25.313129 60.097702 -4.200150 -6.262455 -39.696182 6.671913 -16.272757 
5.021625 40.382874 12.876235 -9.739419 -1.624109 -48.316944 0.000000 0.000000 0.000000 -1.712149 2.649438 12.611505 -12.147373 6.575795 4.011801 14.382108 -5.609729 7.967834 -3.521967 9.154817 6.304141 -87.626678 -2.804893 -31.073805 -88.754265 -14.017765 2.390434 48.635735 20.804863 -5.171111 3.089181 -14.089146 8.026228 91.271507 33.796219 30.766146 91.232681 7.191195 34.894485 -41.993023 -15.689686 -7.558656 -33.654881 11.002271 9.002680 77.371147 3.107724 -10.655106 -3.286769 1.196473 -12.386824 -6.143938 -27.347725 -23.480360 62.058472 -6.675488 -4.541713 -40.431896 6.999510 -16.686161 
5.534322 39.948944 14.298385 -10.913368 -0.524367 -53.841225 0.000000 0.000000 0.000000 -2.673417 1.666081 14.225104 -12.884056 8.642634 3.872640 16.608200 -8.256540 9.059074 -3.521967 9.154817 6.304141 -84.557610 -4.520031 -34.530109 -90.509811 -14.900418 -0.447769 54.440037 27.185993 -1.603236 3.089181 -14.089146 8.026228 92.163559 33.623215 33.826412 89.401360 7.207011 34.708950 -42.688686 -16.465252 -7.268849 -33.712513 12.875439 12.113244 81.118889 2.471136 -21.864290 -2.380398 1.259174 -14.647784 -10.000477 -31.242792 -20.278576 63.416058 -8.980519 -1.873428 -39.551285 6.863647 -16.712479 
5.824635 39.743397 15.683233 -11.725426 0.389659 -58.332180 0.000000 0.000000 0.000000 -3.358613 1.355259 12.230250 -11.925550 10.037694 5.187331 16.155197 -11.012464 11.193746 -3.521967 9.154817 6.304141 -71.483894 -11.878581 -42.860806 -85.441154 -13.476364 0.762386 63.617401 29.637947 1.334071 3.089181 -14.089146 8.026228 95.201584 35.564705 41.035568 86.529816 6.094937 36.633446 -47.421627 -17.739008 -6.572310 -31.743824 16.363535 14.247561 81.295540 1.758636 -33.577824 -3.571801 1.240609 -12.356309 -13.505865 -34.029182 -17.003994 63.816254 -10.591933 0.708403 -37.351158 6.379714 -16.394920 
6.203236 39.710529 16.875063 -11.285762 1.344513 -61.992382 0.000000 0.000000 0.000000 -3.968385 2.534830 7.820356 -9.345149 10.580492 7.671929 13.967912 -13.654468 14.106218 -3.521967 9.154817 6.304141 -48.246853 -22.910818 -53.945255 -60.227768 -5.150291 9.648380 58.720264 27.378691 -0.826768 3.089181 -14.089146 8.026228 99.451401 36.674633 49.476158 83.463829 3.719135 39.264172 -48.747524 -18.660574 -6.117893 -31.236532 21.695049 14.684635 77.101715 1.054978 -21.112005 -2.825678 1.227584 -13.065870 -17.704679 -34.987270 -13.776484 63.724113 -11.648832 2.982595 -33.215858 5.464716 -15.677719 
6.771283 39.646084 18.022631 -10.839005 1.754847 -65.458900 0.000000 0.000000 0.000000 -0.574021 -1.415909 0.703152 -7.635181 11.300849 9.832730 10.918637 -16.121956 17.095575 -3.521967 9.154817 6.304141 -9.798448 -30.116476 -69.981461 -19.535772 19.889177 16.332882 57.024204 24.553438 -2.539737 3.089181 -14.089146 8.026228 102.997658 37.740265 55.007805 84.716957 2.802410 39.700645 -49.271664 -18.824270 -6.012099 -29.238234 27.499865 13.964548 69.499886 1.029477 -6.767413 -2.987687 1.017963 -10.963948 -22.158037 -35.789974 -10.721282 64.126785 -12.547461 6.725727 -27.724291 4.407660 -14.883696 
7.513849 39.571007 19.442442 -10.912691 2.534898 -68.392868 0.000000 0.000000 0.000000 5.412909 -14.042307 -7.854985 -6.615351 11.422137 11.989707 7.416919 -17.770916 19.952869 -3.521967 9.154817 6.304141 19.368240 -11.864348 -79.337471 -22.508099 14.438679 21.011824 56.380947 22.823280 -3.471985 3.089181 -14.089146 8.026228 100.505981 38.102741 54.147697 91.066139 3.684145 38.688194 -52.695705 -19.804213 -5.344226 -25.545425 31.149406 12.762762 59.142506 0.709413 1.051010 -2.109439 0.946990 -10.042910 -26.130318 -38.168652 -8.865396 63.031364 -13.014987 12.110878 -22.766842 3.599615 -14.403078 
8.403399 39.511669 21.152891 -9.942819 4.167642 -73.250084 0.000000 0.000000 0.000000 5.114381 -17.720821 -7.681806 -4.893453 11.374227 14.310476 3.850616 -18.531712 22.783207 -3.521967 9.154817 6.304141 33.271118 -8.963469 -81.200325 -21.949081 15.534239 16.226858 55.111790 21.844856 -4.086305 3.089181 -14.089146 8.026228 95.893875 35.949516 51.778919 90.738335 2.434412 42.375381 -54.464417 -20.451004 -4.884394 -21.553062 35.049168 12.690356 48.054291 0.339882 6.124707 2.505943 0.554760 -13.348257 -31.871241 -38.442005 -5.564966 59.967415 -13.455214 16.579819 -17.524714 2.658464 -13.012649 
9.239220 39.615616 23.141912 -6.877141 4.814741 -78.705353 0.000000 0.000000 0.000000 3.732121 -14.732539 -5.788626 -1.946202 11.715245 16.556229 0.596120 -20.288061 25.974197 -3.521967 9.154817 6.304141 37.205933 -9.270689 -82.901222 -22.278046 17.143349 17.629505 57.807640 22.475639 -3.476244 3.089181 -14.089146 8.026228 95.463402 33.252571 52.780174 86.055618 0.203181 46.408287 -55.826187 -21.996239 -4.039146 -16.620771 39.917507 15.068688 39.064812 -0.080286 3.059274 5.869471 0.146995 -17.072351 -34.545277 -35.667721 -3.204817 53.138058 -13.716330 18.852879 -13.652017 1.923917 -11.433173 
10.022586 39.985256 25.584396 -5.989313 4.786005 -76.118340 0.000000 0.000000 0.000000 5.092417 -9.980762 -9.848660 0.886427 12.491440 17.056768 -0.678765 -20.974602 27.111393 -3.521967 9.154817 6.304141 36.996769 -12.014416 -88.081100 -22.773005 16.465181 17.031240 58.409477 24.390158 -2.425658 3.089181 -14.089146 8.026228 98.192345 29.371284 52.764896 79.794289 -2.003415 48.592007 -59.430855 -21.786526 -3.674474 -18.533516 40.606506 12.996568 31.747061 -0.095270 -4.855833 10.343585 -0.669903 -24.558498 -28.640539 -37.418774 -5.881708 44.615871 -13.511476 20.668606 -6.629252 0.799844 -7.619184 
10.790689 40.298515 28.189230 -3.382451 5.100046 -62.134731 0.000000 0.000000 0.000000 3.979150 -1.903638 -18.037813 -2.096971 15.184896 14.411764 3.458970 -19.879784 24.734657 -3.521967 9.154817 6.304141 35.501221 -20.826706 -98.527832 -22.792511 17.363806 16.459621 61.338501 25.250631 -1.552479 3.089181 -14.089146 8.026228 103.819252 26.551096 52.024940 78.899048 -1.927090 45.759979 -65.948288 -25.693916 -0.676175 -31.078171 37.316368 6.423639 26.159103 0.008537 -5.298483 17.913342 -3.770892 -35.618958 -15.313029 -41.132107 -13.935283 38.716587 -12.243634 20.056749 5.656322 -0.059663 1.200717 
10.809850 40.724785 31.381296 -1.468111 2.120897 -44.237305 0.000000 0.000000 0.000000 -2.036551 8.852304 -18.310839 -11.383791 16.298588 8.377915 12.001113 -18.188881 18.514442 -3.521967 9.154817 6.304141 32.981529 -45.536114 -106.365746 -23.592749 23.431686 24.031683 61.720985 24.300516 -2.021188 3.089181 -14.089146 8.026228 111.011436 30.693150 49.675201 81.333366 -0.467439 34.356770 -69.581451 -24.280039 -0.975859 -38.837852 31.640577 3.733047 25.721931 -1.319289 -16.535629 15.558435 -2.751920 -35.046440 7.718764 -38.987965 -26.751434 31.133276 -8.518686 12.940461 20.661798 1.708770 13.328395 
10.819798 41.126896 34.493336 0.059809 -0.652990 -28.381016 0.000000 0.000000 0.000000 -11.296578 13.641915 -3.173841 -24.853745 12.187464 -0.139823 23.854464 -11.851076 7.953195 -3.521967 9.154817 6.304141 -103.567101 -98.554008 33.500164 -37.042355 25.224121 30.597530 61.995716 22.580542 -2.928176 3.089181 -14.089146 8.026228 108.296082 46.516685 34.119602 80.082504 0.405341 36.392563 -61.185101 -27.152546 -0.568458 -43.895367 26.044287 2.548830 29.737852 -1.696094 -36.607780 7.738027 -0.253975 -28.568071 24.159258 -30.751820 -31.120358 22.685776 -4.408691 2.429363 34.800529 6.176098 22.817242 
11.104660 41.268845 36.928921 -0.073398 -1.415581 -13.383191 0.000000 0.000000 0.000000 -10.966855 9.965721 17.508858 -34.506397 5.406967 -7.160515 31.518742 -5.826645 -1.973565 -3.521967 9.154817 6.304141 -0.142801 -111.663551 -56.018021 -58.190514 21.864954 36.793903 59.754696 18.961811 -5.105752 3.089181 -14.089146 8.026228 57.201263 72.984993 -28.877047 58.321640 -5.918818 44.241127 -63.661884 -25.992950 -0.806946 -49.735588 17.587700 1.582147 37.057148 -2.074665 -41.584572 5.932910 0.244538 -28.003763 31.195520 -23.163460 -30.668365 24.579565 -0.201114 1.452173 37.084312 7.192212 24.917206 
11.569217 40.956520 38.733700 -1.535403 1.892389 -2.726024 0.000000 0.000000 0.000000 2.849365 1.963458 44.544899 -34.005394 0.996377 -11.173560 32.307560 -1.817898 -8.041401 -3.521967 9.154817 6.304141 1.326559 -129.907944 -46.295292 -67.663101 17.304132 43.588379 57.178864 18.683973 -5.420208 3.089181 -14.089146 8.026228 -35.803097 40.774261 -118.302452 16.588877 -18.827759 38.880081 -62.414001 -28.736736 0.457837 -49.864658 8.738533 1.838102 40.100834 -2.615301 -45.134010 4.507511 0.598345 -26.519920 32.196888 -21.385822 -33.431820 33.086613 1.462224 3.996424 33.378826 5.875376 23.305410 
11.740532 41.335163 40.564407 -0.351825 5.293550 4.854764 0.000000 0.000000 0.000000 15.801892 -2.272937 56.023525 -28.658911 -1.854460 -13.141985 28.823771 2.257657 -11.600756 -3.521967 9.154817 6.304141 10.756482 -126.340096 -61.099136 -99.961105 3.753696 20.969248 56.821053 18.603306 -5.483748 3.089181 -14.089146 8.026228 -52.388485 12.181808 -115.219498 7.393301 -11.461602 28.244448 -61.682812 -32.559822 2.763073 -48.863880 3.662009 3.286856 39.463245 -4.896903 -43.127590 4.498923 0.559209 -25.877363 28.325548 -22.118694 -33.511627 39.350319 2.434342 -14.582888 30.163761 4.233847 19.652258 
